<svg width="39" height="41" viewBox="0 0 39 41" fill="none" xmlns="http://www.w3.org/2000/svg">
<path d="M16.8398 0C20.2264 0 23.1731 0.653385 25.6797 1.95996C28.213 3.23996 30.1729 5.05372 31.5596 7.40039C32.9461 9.74695 33.6396 12.4932 33.6396 15.6396C33.6396 17.5495 33.3819 19.3116 32.8711 20.9268L25.3184 16.7432C25.3452 16.3867 25.3604 16.0187 25.3604 15.6396C25.3603 12.7865 24.6133 10.5866 23.1201 9.04004C21.6268 7.49337 19.5332 6.71973 16.8398 6.71973C14.1466 6.71976 12.0395 7.4934 10.5195 9.04004C8.99976 10.5866 8.2403 12.7866 8.24023 15.6396C8.24023 18.4662 8.9996 20.6669 10.5195 22.2402C11.7639 23.5064 13.402 24.2528 15.4326 24.4824L16.3252 31.2734C13.1269 31.2119 10.325 30.5755 7.91992 29.3604C5.38659 28.0537 3.42671 26.2265 2.04004 23.8799C0.680066 21.5332 0 18.7863 0 15.6396C5.05573e-05 12.4933 0.680196 9.74691 2.04004 7.40039C3.4267 5.05374 5.38661 3.23996 7.91992 1.95996C10.4532 0.653314 13.4266 1.99577e-05 16.8398 0Z" fill="black"/>
<path d="M17.7265 14.6401C16.82 14.6401 16.1924 15.3803 16.3319 16.2549L19.5396 39.4006C19.679 40.6117 21.2131 41.0827 21.9802 40.1407L27.6982 31.6629C27.9074 31.3265 28.1864 31.1247 28.535 31.0574L36.8331 29.3753C38.6462 28.9716 38.8554 26.6166 37.1121 25.8092L18.7725 14.9766C18.4239 14.7747 18.0752 14.6401 17.7265 14.6401Z" fill="black"/>
</svg>
